<svg version="1.1" id="Layer_1" xmlns="http://www.w3.org/2000/svg" xmlns:xlink="http://www.w3.org/1999/xlink" x="0px" y="0px"
	 width="100%" viewBox="0 0 1080 1080" enable-background="new 0 0 1080 1080" xml:space="preserve" fill="#FFFFFF">
<path opacity="1.000000" stroke="none" 
	d="
M302.236145,312.870789 
	C303.533356,315.574707 305.463745,318.025665 305.466125,320.478485 
	C305.609619,468.774750 305.604767,617.071167 305.499512,765.367493 
	C305.497955,767.594788 304.704559,770.456116 303.210724,771.955750 
	C255.705658,819.649231 208.068192,867.210876 160.444977,914.786621 
	C160.103577,915.127563 159.681381,915.387634 158.818268,916.056213 
	C158.818268,666.593140 158.818268,417.568268 158.818268,167.644379 
	C206.834808,216.272369 254.402222,264.445526 302.236145,312.870789 
z"/>
<path opacity="1.000000" stroke="none" 
	d="
M311.008209,660.000000 
	C311.008209,545.724792 311.008209,431.949646 311.008209,318.004456 
	C360.091827,318.004456 408.713776,318.004456 457.704529,318.004456 
	C457.704529,517.110352 457.704529,716.303406 457.704529,916.001587 
	C456.530090,914.934937 455.473511,914.052246 454.503357,913.083130 
	C407.813782,866.443176 361.147552,819.779907 314.403046,773.195129 
	C311.998413,770.798767 310.908447,768.468750 310.922485,764.988037 
	C311.062988,730.159180 311.008057,695.329468 311.008209,660.000000 
z"/>
<path opacity="1.000000" stroke="none" 
	d="
M702.604736,256.394958 
	C721.183777,275.189819 739.513672,293.733765 758.557190,312.999634 
	C755.986938,312.999634 754.395325,312.999634 752.803772,312.999634 
	C606.828979,312.999634 460.854187,312.984802 314.879456,313.084869 
	C311.221558,313.087402 308.762085,311.988373 306.224640,309.441833 
	C259.765228,262.815430 213.218109,216.276413 166.673782,169.734680 
	C165.382507,168.443481 163.916595,167.326935 161.770615,165.470016 
	C163.870041,165.147766 164.894897,164.852768 165.919769,164.852631 
	C313.394318,164.832306 460.868835,164.821243 608.343262,164.953018 
	C610.480652,164.954926 613.131348,166.238449 614.676758,167.787537 
	C643.981018,197.161911 673.154785,226.666504 702.604736,256.394958 
z"/>
<path opacity="1.000000" stroke="none" 
	d="
M388.000092,13.163828 
	C511.432129,13.163829 634.364136,13.163829 758.132019,13.163829 
	C756.777100,14.733671 755.943787,15.844362 754.967102,16.809986 
	C708.283875,62.965981 661.604919,109.126328 614.822144,155.181152 
	C613.250305,156.728500 610.616516,158.044266 608.476379,158.046188 
	C460.847626,158.179535 313.218719,158.167450 165.589844,158.162750 
	C164.796051,158.162735 164.002243,158.093506 162.418839,158.019867 
	C163.648895,156.634354 164.394836,155.683350 165.251297,154.845306 
	C212.291901,108.816208 259.360291,62.815495 306.340088,16.724440 
	C308.895752,14.217098 311.349609,13.045282 315.021271,13.072258 
	C339.179779,13.249739 363.340240,13.163828 388.000092,13.163828 
z"/>
<path opacity="1.000000" stroke="none" 
	d="
M462.523071,521.999634 
	C462.523071,504.172485 462.523071,486.845398 462.523071,468.833618 
	C464.259735,468.833618 465.853363,468.833649 467.446991,468.833649 
	C564.594421,468.833649 661.741882,468.815735 758.889221,468.940308 
	C761.235352,468.943298 764.236755,469.880096 765.829041,471.479736 
	C813.318726,519.190796 860.668884,567.040710 908.039185,614.870605 
	C908.475891,615.311523 908.886230,615.778564 909.740112,616.697510 
	C760.458740,616.697510 611.783081,616.697510 462.523071,616.697510 
	C462.523071,585.314941 462.523071,553.907288 462.523071,521.999634 
z"/>
<path opacity="1.000000" stroke="none" 
	d="
M647.999634,767.507568 
	C586.053711,767.507568 524.607910,767.507568 462.838837,767.507568 
	C462.838837,719.254578 462.838837,671.365051 462.838837,623.153381 
	C611.468079,623.153381 760.097534,623.153381 908.726929,623.153381 
	C909.068542,623.505859 909.410095,623.858398 909.751709,624.210876 
	C908.449463,625.114258 906.981750,625.849426 905.868896,626.945129 
	C859.334717,672.762268 812.855286,718.635071 766.237244,764.366577 
	C764.476685,766.093628 761.415894,767.363953 758.953430,767.376587 
	C722.136230,767.566040 685.317810,767.507629 647.999634,767.507568 
z"/>
<path opacity="1.000000" stroke="none" 
	d="
M778.495728,295.501404 
	C773.664490,300.313293 769.080139,304.872803 764.290833,309.636139 
	C714.534058,260.246277 664.890991,210.969269 615.055969,161.501755 
	C664.857056,112.070465 714.495239,62.800861 764.394836,13.271760 
	C813.409851,62.761772 862.240112,112.065193 911.201721,161.501312 
	C866.900391,206.233627 822.821533,250.741318 778.495728,295.501404 
z"/>
<path opacity="1.000000" stroke="none" 
	d="
M218.980621,981.017090 
	C199.170349,961.678955 179.610428,942.591431 159.710709,923.172302 
	C209.264847,872.951355 257.803314,823.759766 306.643921,774.261963 
	C357.147003,823.603516 407.529877,872.827576 458.120514,922.254700 
	C407.554047,971.321045 357.244904,1020.137695 307.735138,1068.178711 
	C278.118408,1039.095093 248.674683,1010.181274 218.980621,981.017090 
z"/>
<path opacity="1.000000" stroke="none" 
	d="
M767.753662,433.999817 
	C767.753662,395.851227 767.707520,358.202423 767.863892,320.554474 
	C767.873718,318.196014 768.821167,315.207672 770.419922,313.581635 
	C817.486328,265.711914 864.690430,217.977631 911.877686,170.226761 
	C912.568604,169.527618 913.323914,168.892136 914.503662,167.810135 
	C914.503662,316.398224 914.503662,464.459656 914.503662,613.171692 
	C912.878113,611.645874 911.570129,610.492004 910.344116,609.256714 
	C863.991333,562.554260 817.665833,515.824707 771.246887,469.188110 
	C768.696777,466.626068 767.557007,464.123596 767.668396,460.484711 
	C767.933289,451.830322 767.753662,443.162354 767.753662,433.999817 
z"/>
<path opacity="1.000000" stroke="none" 
	d="
M845.000000,890.000977 
	C890.792175,890.000977 936.084351,890.000977 981.687988,890.000977 
	C981.687988,908.900269 981.687988,927.634216 981.687988,946.700806 
	C853.385864,946.700806 724.917786,946.700806 596.225220,946.700806 
	C596.225220,927.950684 596.225220,909.215881 596.225220,890.000977 
	C679.042908,890.000977 761.771484,890.000977 845.000000,890.000977 
z"/>
<path opacity="1.000000" stroke="none" 
	d="
M615.046082,411.000000 
	C615.046082,379.850311 615.046082,349.200623 615.046082,318.191284 
	C663.623596,318.191284 712.017334,318.191284 760.733521,318.191284 
	C760.733521,366.685425 760.733521,415.393341 760.733521,464.229126 
	C712.163818,464.229126 663.739380,464.229126 615.046082,464.229126 
	C615.046082,446.467468 615.046082,428.983734 615.046082,411.000000 
z"/>
</svg>